<?xml version="1.0" encoding="UTF-8"?>
<svg width="58px" height="18px" viewBox="0 0 58 18" version="1.1" xmlns="http://www.w3.org/2000/svg" xmlns:xlink="http://www.w3.org/1999/xlink">
    <!-- Generator: Sketch 63.1 (92452) - https://sketch.com -->
    <title>icon无延迟-移动端</title>
    <desc>Created with Sketch.</desc>
    <defs>
        <linearGradient x1="100%" y1="50%" x2="-2.22044605e-14%" y2="50%" id="linearGradient-1">
            <stop stop-color="#3F86FF" offset="0%"></stop>
            <stop stop-color="#275EFF" offset="100%"></stop>
        </linearGradient>
        <polygon id="path-2" points="1.83076693 8.88778779 9.62067097 1.27909214 54.8307669 1.27909214 54.8307669 11.4964834 49.4342438 16.9312661 1.83076693 16.9312661"></polygon>
        <filter x="-3.8%" y="-12.8%" width="107.5%" height="125.6%" filterUnits="objectBoundingBox" id="filter-3">
            <feGaussianBlur stdDeviation="1.5" in="SourceAlpha" result="shadowBlurInner1"></feGaussianBlur>
            <feOffset dx="0" dy="1" in="shadowBlurInner1" result="shadowOffsetInner1"></feOffset>
            <feComposite in="shadowOffsetInner1" in2="SourceAlpha" operator="arithmetic" k2="-1" k3="1" result="shadowInnerInner1"></feComposite>
            <feColorMatrix values="0 0 0 0 0.38515625   0 0 0 0 0.810649354   0 0 0 0 1  0 0 0 0.5 0" type="matrix" in="shadowInnerInner1"></feColorMatrix>
        </filter>
        <polygon id="path-4" points="0 7.875 6.25 0 50 0 50 9.625 45.5357143 14 0 14"></polygon>
        <linearGradient x1="48.2382285%" y1="10.2946501%" x2="48.2382285%" y2="98.2382285%" id="linearGradient-6">
            <stop stop-color="#4D5D8F" offset="0%"></stop>
            <stop stop-color="#85A1FF" offset="45.4629434%"></stop>
            <stop stop-color="#4C5FBB" offset="100%"></stop>
        </linearGradient>
        <linearGradient x1="91.0252474%" y1="43.7306886%" x2="8.97475259%" y2="56.2693114%" id="linearGradient-7">
            <stop stop-color="#77ABFF" offset="0%"></stop>
            <stop stop-color="#FFF3ED" offset="34.375%"></stop>
            <stop stop-color="#3A58EE" offset="100%"></stop>
        </linearGradient>
        <path d="M2.06103873,0.821204206 C1.58180504,1.97326175 1.53136717,2.93725003 1.90972512,3.71316903 C2.28808306,4.48908804 3.04475581,5.88481861 4.17974337,7.90036075 L5.80216866,4.44627416 L2.06103873,0.821204206 Z" id="path-8"></path>
        <linearGradient x1="98.1223421%" y1="50%" x2="2.54698057%" y2="50%" id="linearGradient-10">
            <stop stop-color="#D9D9D9" offset="0%"></stop>
            <stop stop-color="#F8F6F6" offset="23.112859%"></stop>
            <stop stop-color="#FFFFFF" offset="57.2239231%"></stop>
            <stop stop-color="#BAC7FF" offset="80.4344383%"></stop>
            <stop stop-color="#747FAE" offset="100%"></stop>
        </linearGradient>
        <path d="M5.49294887,0 C8.61577255,1.66672821 10.3362624,3.9925609 10.6519711,6.97986894 C10.9701271,9.96480609 10.3484992,13.132301 8.78953468,16.4776118 L2.41662492,16.4420486 C0.818502775,13.0777707 0.160164555,9.90553411 0.441610263,6.92296783 C0.72305597,3.93803067 2.40683551,1.63116502 5.49294887,0 Z" id="path-11"></path>
        <linearGradient x1="84.9574498%" y1="50%" x2="17.061942%" y2="50%" id="linearGradient-13">
            <stop stop-color="#8AADFF" offset="0%"></stop>
            <stop stop-color="#60FFFB" offset="41.8813345%"></stop>
            <stop stop-color="#3847FF" offset="100%"></stop>
        </linearGradient>
        <linearGradient x1="50%" y1="127.993184%" x2="50%" y2="5.06063101%" id="linearGradient-14">
            <stop stop-color="#CAF5FF" offset="1.40413851%"></stop>
            <stop stop-color="#79ABFF" offset="100%"></stop>
        </linearGradient>
        <radialGradient cx="50%" cy="0%" fx="50%" fy="0%" r="129.117749%" gradientTransform="translate(0.500000,0.000000),scale(1.000000,0.991290),rotate(90.000000),translate(-0.500000,-0.000000)" id="radialGradient-15">
            <stop stop-color="#58F6FF" offset="0%"></stop>
            <stop stop-color="#0058EE" offset="100%"></stop>
        </radialGradient>
        <linearGradient x1="50%" y1="0%" x2="50%" y2="100%" id="linearGradient-16">
            <stop stop-color="#0094C5" offset="0%"></stop>
            <stop stop-color="#00778B" offset="99.2979307%"></stop>
        </linearGradient>
        <linearGradient x1="50%" y1="0%" x2="50%" y2="100%" id="linearGradient-17">
            <stop stop-color="#FFFFFF" offset="0%"></stop>
            <stop stop-color="#FFFFFF" stop-opacity="0" offset="100%"></stop>
        </linearGradient>
    </defs>
    <g id="icon无延迟-移动端" stroke="none" stroke-width="1" fill="none" fill-rule="evenodd">
        <g id="icon无延迟备份" transform="translate(2.000000, -0.565918)">
            <g id="icon无延迟">
                <g>
                    <g id="icon无延迟备份-2" transform="translate(0.275758, 0.395257)">
                        <g id="icon无延迟">
                            <g id="矩形备份-4">
                                <use fill="url(#linearGradient-1)" fill-rule="evenodd" xlink:href="#path-2"></use>
                                <use fill="black" fill-opacity="1" filter="url(#filter-3)" xlink:href="#path-2"></use>
                                <path stroke="#34B8FD" stroke-width="0.8" d="M54.4307669,1.67909214 L9.78360582,1.67909214 L2.23076693,9.05623724 L2.23076693,16.5312661 L49.2677301,16.5312661 L54.4307669,11.3316251 L54.4307669,1.67909214 Z" stroke-linejoin="square"></path>
                            </g>
                            <g id="形状结合备份" transform="translate(3.706383, 2.157637)">
                                <mask id="mask-5" fill="white">
                                    <use xlink:href="#path-4"></use>
                                </mask>
                                <use id="蒙版" fill="#D8D8D8" opacity="0" xlink:href="#path-4"></use>
                                <path d="M46.2878788,15.8102767 L46.2878788,4.70734562e-14 M45.3030303,15.8102767 L45.3030303,4.70734562e-14 M44.3181818,15.8102767 L44.3181818,4.70734562e-14 M43.3333333,15.8102767 L43.3333333,4.70734562e-14 M42.3484848,15.8102767 L42.3484848,4.70734562e-14 M41.3636364,15.8102767 L41.3636364,4.70734562e-14 M40.3787879,15.8102767 L40.3787879,4.70734562e-14 M39.3939394,15.8102767 L39.3939394,4.70734562e-14 M54.1666667,15.8102767 L54.1666667,4.70734562e-14 M53.1818182,15.8102767 L53.1818182,4.70734562e-14 M52.1969697,15.8102767 L52.1969697,4.70734562e-14 M51.2121212,15.8102767 L51.2121212,4.70734562e-14 M50.2272727,15.8102767 L50.2272727,4.70734562e-14 M49.2424242,15.8102767 L49.2424242,4.70734562e-14 M48.2575758,15.8102767 L48.2575758,4.70734562e-14 M47.2727273,15.8102767 L47.2727273,4.70734562e-14 M38.4090909,15.8102767 L38.4090909,4.70734562e-14 M37.4242424,15.8102767 L37.4242424,4.70734562e-14 M36.4393939,15.8102767 L36.4393939,4.70734562e-14 M35.4545455,15.8102767 L35.4545455,4.70734562e-14 M34.469697,15.8102767 L34.469697,4.70734562e-14 M33.4848485,15.8102767 L33.4848485,4.70734562e-14 M32.5,15.8102767 L32.5,4.70734562e-14 M31.5151515,15.8102767 L31.5151515,4.70734562e-14 M30.530303,15.8102767 L30.530303,4.70734562e-14 M29.5454545,15.8102767 L29.5454545,4.70734562e-14 M28.5606061,15.8102767 L28.5606061,4.70734562e-14 M27.5757576,15.8102767 L27.5757576,4.70734562e-14 M26.5909091,15.8102767 L26.5909091,4.70734562e-14 M25.6060606,15.8102767 L25.6060606,4.70734562e-14 M24.6212121,15.8102767 L24.6212121,4.70734562e-14 M23.6363636,15.8102767 L23.6363636,4.70734562e-14 M22.6515152,15.8102767 L22.6515152,4.70734562e-14 M21.6666667,15.8102767 L21.6666667,4.70734562e-14 M20.6818182,15.8102767 L20.6818182,4.70734562e-14 M19.6969697,15.8102767 L19.6969697,4.70734562e-14 M18.7121212,15.8102767 L18.7121212,4.70734562e-14 M17.7272727,15.8102767 L17.7272727,4.70734562e-14 M16.7424242,15.8102767 L16.7424242,4.70734562e-14 M15.7575758,15.8102767 L15.7575758,4.70734562e-14 M14.7727273,15.8102767 L14.7727273,4.70734562e-14 M13.7878788,15.8102767 L13.7878788,4.70734562e-14 M12.8030303,15.8102767 L12.8030303,4.70734562e-14 M11.8181818,15.8102767 L11.8181818,4.70734562e-14 M10.8333333,15.8102767 L10.8333333,4.70734562e-14 M9.84848485,15.8102767 L9.84848485,4.70734562e-14 M8.86363636,15.8102767 L8.86363636,4.70734562e-14 M7.87878788,15.8102767 L7.87878788,4.70734562e-14 M6.89393939,15.8102767 L6.89393939,4.70734562e-14 M5.90909091,15.8102767 L5.90909091,4.70734562e-14 M4.92424242,15.8102767 L4.92424242,4.70734562e-14 M3.93939394,15.8102767 L3.93939394,4.70734562e-14 M2.95454545,15.8102767 L2.95454545,4.70734562e-14 M1.96969697,15.8102767 L1.96969697,4.70734562e-14 M0.984848485,15.8102767 L0.984848485,4.70734562e-14 M-2.47235565e-12,15.8102767 L-2.47235565e-12,4.70734562e-14" id="形状结合" stroke="#80FFF6" stroke-width="0.2" opacity="0.3" stroke-linecap="square" mask="url(#mask-5)"></path>
                            </g>
                            <path d="M19.6215758,13.2790921 L22.4295758,8.85109214 L22.9815758,8.85109214 L22.3575758,13.2790921 L27.1455758,13.2790921 L27.4095758,11.4670921 L26.8815758,11.9230921 L24.8295758,11.9230921 L25.2615758,8.85109214 L27.5415758,8.85109214 L27.7095758,7.71109214 L23.1495758,7.71109214 L24.1695758,6.11509214 L27.4695758,6.11509214 L27.6375758,4.97509214 L18.9735758,4.97509214 L18.8055758,6.11509214 L21.6615758,6.11509214 L20.6535758,7.71109214 L18.1335758,7.71109214 L17.9655758,8.85109214 L19.9215758,8.85109214 L17.1135758,13.2790921 L19.6215758,13.2790921 Z M37.8135758,11.4310921 L37.9935758,10.1830921 L36.6255758,10.1830921 L36.8415758,8.70709214 L38.2095758,8.70709214 L38.3775758,7.54309214 L37.0095758,7.54309214 L37.1895758,6.21109214 L38.5455758,6.15109214 L38.7135758,4.92709214 L33.0255758,5.16709214 L32.8455758,6.39109214 L35.1255758,6.29509214 L34.5735758,10.1830921 L34.0815758,10.1830921 L34.5375758,6.90709214 L32.7615758,6.90709214 L32.1255758,11.4310921 L37.8135758,11.4310921 Z M30.0255758,13.1830921 L30.3615758,12.4750921 L31.3935758,13.1830921 L38.2335758,13.1830921 L38.4015758,11.9230921 L32.1855758,11.9230921 L30.9975758,11.1190921 L31.9695758,9.07909214 L32.1255758,7.93909214 L31.2135758,7.93909214 L32.3775758,6.11509214 L32.5455758,4.97509214 L29.3535758,4.97509214 L29.1855758,6.11509214 L30.5535758,6.11509214 L28.8015758,8.85109214 L30.1695758,8.85109214 L30.1455758,9.07909214 L29.6295758,10.1710921 L28.7055758,9.53509214 L28.4775758,11.1910921 L28.9815758,11.5390921 L28.2015758,13.1830921 L30.0255758,13.1830921 Z M44.4735758,11.6470921 L45.0855758,8.41909214 L49.3695758,8.41909214 L49.8495758,4.97509214 L43.3215758,4.97509214 L43.6935758,5.40709214 L42.4455758,11.6470921 L44.4735758,11.6470921 Z M42.6135758,6.34309214 L42.2415758,4.97509214 L40.4175758,4.97509214 L40.7895758,6.34309214 L42.6135758,6.34309214 Z M47.4615758,7.38709214 L45.3495758,7.38709214 L45.6135758,6.05509214 L47.6415758,6.05509214 L47.4615758,7.38709214 Z M41.1975758,13.1830921 L41.3895758,12.8350921 L42.5655758,13.1830921 L48.9495758,13.1830921 L49.1055758,12.0430921 L43.5255758,12.0430921 L41.8815758,11.5510921 L42.5295758,6.91909214 L40.0215758,6.91909214 L39.8535758,8.14309214 L40.3095758,8.14309214 L39.7575758,12.0430921 L39.1455758,13.1830921 L41.1975758,13.1830921 Z M49.1295758,11.7310921 L47.6895758,8.70709214 L45.6255758,8.70709214 L46.9935758,11.7310921 L49.1295758,11.7310921 Z" id="无延迟" fill="#C8FBFF" fill-rule="nonzero"></path>
                        </g>
                    </g>
                </g>
            </g>
        </g>
        <g id="编组-4备份-4" transform="translate(-4.000000, -3.565918)">
            <g transform="translate(13.000000, 11.500000) rotate(2.000000) translate(-13.000000, -11.500000) translate(0.787879, 0.766667)" id="编组-4">
                <g transform="translate(0.096557, 0.021044)">
                    <polygon id="矩形备份-62" fill="#FFC300" opacity="0.200000003" transform="translate(18.787192, 15.455140) rotate(-53.000000) translate(-18.787192, -15.455140) " points="17.5621121 13.7927881 20.0122724 14.1548541 18.9998611 17.1174922"></polygon>
                    <path d="M21.447241,15.3053889 C21.447241,16.6481503 19.9312718,18.7331604 19.9312718,18.7331604 C19.9312718,18.7331604 18.4175878,16.5086523 18.4175878,15.3053889 C18.4175878,14.2863821 19.0773011,13.45387 19.9312718,13.45387 C20.782957,13.45387 21.447241,14.2863821 21.447241,15.3053889" id="形状" fill="#1EEBFF" fill-rule="nonzero" transform="translate(19.932414, 16.093515) rotate(-60.000000) translate(-19.932414, -16.093515) "></path>
                    <path d="M20.5651767,15.3647333 C20.5651767,16.3318369 19.6494949,17.8335339 19.6494949,17.8335339 C19.6494949,17.8335339 18.7351935,16.2313656 18.7351935,15.3647333 C18.7351935,14.6308092 19.1336761,14.031205 19.6494949,14.031205 C20.1639332,14.031205 20.5651767,14.6308092 20.5651767,15.3647333" id="形状" fill="#FFFFFF" fill-rule="nonzero" opacity="0.609281994" transform="translate(19.650185, 15.932369) rotate(-60.000000) translate(-19.650185, -15.932369) "></path>
                    <path d="M19.5631493,15.2973838 C19.5631493,15.8445882 19.0450403,16.694275 19.0450403,16.694275 C19.0450403,16.694275 18.5277123,15.7877397 18.5277123,15.2973838 C18.5277123,14.8821165 18.7531809,14.5428498 19.0450403,14.5428498 C19.3361186,14.5428498 19.5631493,14.8821165 19.5631493,15.2973838" id="形状" fill="#FFFFFF" fill-rule="nonzero" transform="translate(19.045431, 15.618562) rotate(-60.000000) translate(-19.045431, -15.618562) "></path>
                    <polygon id="矩形备份-64" fill="url(#linearGradient-6)" points="16.7129724 16.3452558 18.8758176 13.5647507 19.4498561 13.9838029 17.2870109 16.764308"></polygon>
                    <polygon id="矩形备份-64" fill="url(#linearGradient-7)" points="14.9264061 16.4914637 19.089014 11.6524213 19.7892947 12.774233 16.3479146 17.0008852"></polygon>
                    <path d="M11.4619665,12.3169273 C10.9827328,13.4689849 10.9322949,14.4329732 11.3106529,15.2088922 C11.6890108,15.9848112 12.4456836,17.3805417 13.5806711,19.3960839 L15.2030964,15.9419973 L11.4619665,12.3169273 Z" id="路径-2备份-19" fill="#F53333" transform="translate(13.131680, 15.856506) rotate(-383.000000) translate(-13.131680, -15.856506) "></path>
                    <path d="M11.4805734,12.6653932 C11.0013397,13.8174508 10.9509018,14.7814391 11.3292598,15.5573581 C11.7076177,16.3332771 12.4642905,17.7290076 13.599278,19.7445498 L15.2217033,16.2904632 L11.4805734,12.6653932 Z" id="路径-2备份-20" fill="#1EEBFF" transform="translate(13.150287, 16.204972) rotate(-383.000000) translate(-13.150287, -16.204972) "></path>
                    <g id="椭圆形" transform="translate(9.400928, 11.495723)">
                        <mask id="mask-9" fill="white">
                            <use xlink:href="#path-8"></use>
                        </mask>
                        <use id="蒙版" fill="#32B9FF" transform="translate(3.730752, 4.360782) rotate(-383.000000) translate(-3.730752, -4.360782) " xlink:href="#path-8"></use>
                    </g>
                    <path d="M16.8592203,6.62428654 C16.3750033,7.81471005 16.3112925,8.80540448 16.668088,9.59636981 C17.0248835,10.3873351 17.740794,11.80896 18.8158195,13.8612444 L20.4483666,10.2892723 L16.8592203,6.62428654 Z" id="路径-2备份-21" fill="#1EEBFF" transform="translate(18.444701, 10.242765) scale(-1, 1) rotate(-277.000000) translate(-18.444701, -10.242765) "></path>
                    <path d="M16.2880372,6.73952571 C15.8038201,7.92994923 15.7401094,8.92064365 16.0969049,9.71160898 C16.4537004,10.5025743 17.1696109,11.9241992 18.2446364,13.9764835 L19.8771834,10.4045114 L16.2880372,6.73952571 Z" id="路径-2备份-22" fill="#3CBAFF" transform="translate(17.873518, 10.358005) scale(-1, 1) rotate(-277.000000) translate(-17.873518, -10.358005) "></path>
                    <g id="编组-3">
                        <g id="矩形备份-65" transform="translate(10.801547, 9.568690) rotate(-53.000000) translate(-10.801547, -9.568690) translate(5.286396, 1.135357)">
                            <mask id="mask-12" fill="white">
                                <use xlink:href="#path-11"></use>
                            </mask>
                            <use id="蒙版" fill="url(#linearGradient-10)" fill-rule="nonzero" xlink:href="#path-11"></use>
                            <rect id="矩形" fill="url(#linearGradient-13)" mask="url(#mask-12)" x="-2.07087396" y="-2.00616358" width="14.4961177" height="7.02157252"></rect>
                        </g>
                        <ellipse id="椭圆形备份-14" fill="url(#linearGradient-14)" transform="translate(11.426000, 9.911105) rotate(-53.000000) translate(-11.426000, -9.911105) " cx="11.4260001" cy="9.91110475" rx="3.32133176" ry="3.35051343"></ellipse>
                        <ellipse id="椭圆形备份-14" stroke="url(#linearGradient-16)" stroke-width="0.5" fill="url(#radialGradient-15)" transform="translate(11.426000, 9.911105) rotate(-53.000000) translate(-11.426000, -9.911105) " cx="11.4260001" cy="9.91110475" rx="2.46422117" ry="2.48367562"></ellipse>
                        <ellipse id="椭圆形" fill="url(#linearGradient-17)" cx="11.5312166" cy="8.8600207" rx="1.32018215" ry="1.27892928"></ellipse>
                    </g>
                </g>
            </g>
        </g>
    </g>
</svg>